<mxfile host="65bd71144e">
    <diagram id="_plC1whm3F_HyEFEo8bp" name="第 1 页">
        <mxGraphModel dx="742" dy="611" grid="1" gridSize="10" guides="1" tooltips="1" connect="1" arrows="1" fold="1" page="1" pageScale="1" pageWidth="827" pageHeight="1169" math="0" shadow="0">
            <root>
                <mxCell id="0"/>
                <mxCell id="1" parent="0"/>
                <mxCell id="2" value="患者背景资料卡" style="strokeWidth=1;shadow=0;dashed=0;align=center;html=1;shape=mxgraph.mockup.containers.window;align=left;verticalAlign=top;spacingLeft=8;strokeColor2=#008cff;strokeColor3=#c4c4c4;mainText=;fontSize=17;labelBackgroundColor=none;whiteSpace=wrap;fillColor=#d5e8d4;strokeColor=#82b366;" vertex="1" parent="1">
                    <mxGeometry x="100" y="120" width="550" height="380" as="geometry"/>
                </mxCell>
                <mxCell id="3" value="&lt;div style=&quot;font-family: Consolas, &amp;quot;Courier New&amp;quot;, monospace; font-size: 14px; line-height: 19px; white-space-collapse: preserve;&quot;&gt;&lt;div style=&quot;color: light-dark(rgb(0, 0, 0), rgb(237, 237, 237));&quot;&gt;&lt;span&gt;&lt;span style=&quot;color: rgb(4, 81, 165);&quot;&gt;&quot;年龄&quot;&lt;/span&gt;&lt;span style=&quot;color: rgb(0, 0, 0);&quot;&gt;: &lt;/span&gt;&lt;span style=&quot;color: rgb(9, 134, 88);&quot;&gt;16&lt;/span&gt;&lt;span style=&quot;color: rgb(0, 0, 0);&quot;&gt;,&lt;/span&gt;&lt;/span&gt;&lt;/div&gt;&lt;div style=&quot;color: light-dark(rgb(0, 0, 0), rgb(237, 237, 237));&quot;&gt;&lt;span&gt;&lt;span style=&quot;color: rgb(4, 81, 165);&quot;&gt;&quot;性别&quot;&lt;/span&gt;&lt;span style=&quot;color: rgb(0, 0, 0);&quot;&gt;: &lt;/span&gt;&lt;span style=&quot;color: rgb(163, 21, 21);&quot;&gt;&quot;男&quot;&lt;/span&gt;&lt;span style=&quot;color: rgb(0, 0, 0);&quot;&gt;,&lt;/span&gt;&lt;/span&gt;&lt;/div&gt;&lt;div style=&quot;color: light-dark(rgb(0, 0, 0), rgb(237, 237, 237));&quot;&gt;&lt;span&gt;&lt;span style=&quot;color: rgb(4, 81, 165);&quot;&gt;&quot;主题&quot;&lt;/span&gt;&lt;span style=&quot;color: rgb(0, 0, 0);&quot;&gt;: &lt;/span&gt;&lt;span style=&quot;color: rgb(163, 21, 21);&quot;&gt;&quot;兴趣爱好&quot;&lt;/span&gt;&lt;span style=&quot;color: rgb(0, 0, 0);&quot;&gt;,&lt;/span&gt;&lt;/span&gt;&lt;/div&gt;&lt;div style=&quot;&quot;&gt;&lt;span style=&quot;color: rgb(4, 81, 165);&quot;&gt;&quot;背景&quot;&lt;/span&gt;&lt;span style=&quot;color: rgb(0, 0, 0);&quot;&gt;: &lt;/span&gt;&lt;span&gt;&lt;font style=&quot;color: rgb(163, 21, 21);&quot;&gt;&quot;来访者男，16岁，高一。因与同学的矛盾，&lt;/font&gt;&lt;/span&gt;&lt;/div&gt;&lt;div style=&quot;&quot;&gt;&lt;font style=&quot;color: rgb(163, 21, 21);&quot;&gt;&lt;span style=&quot;background-color: transparent;&quot;&gt;感到孤独和被排斥，&lt;/span&gt;&lt;span style=&quot;background-color: transparent;&quot;&gt;导致他不愿意去学校。&lt;/span&gt;&lt;/font&gt;&lt;/div&gt;&lt;div style=&quot;&quot;&gt;&lt;span style=&quot;background-color: transparent;&quot;&gt;&lt;font style=&quot;color: rgb(163, 21, 21);&quot;&gt;他提到在学校经常感到被威胁和无助，这让他的社交兴趣显著下降。&lt;/font&gt;&lt;/span&gt;&lt;/div&gt;&lt;div style=&quot;&quot;&gt;&lt;span&gt;&lt;font style=&quot;color: rgb(163, 21, 21);&quot;&gt;他更倾向于独自一人在家，沉浸在自己的世界里。&lt;/font&gt;&lt;/span&gt;&lt;/div&gt;&lt;div style=&quot;&quot;&gt;&lt;font style=&quot;color: rgb(163, 21, 21);&quot;&gt;他对于与人互动的兴趣减少，&lt;span style=&quot;background-color: transparent;&quot;&gt;特别是与异性的交往。&lt;/span&gt;&lt;/font&gt;&lt;/div&gt;&lt;div style=&quot;&quot;&gt;&lt;font style=&quot;color: rgb(163, 21, 21);&quot;&gt;此外，他还有着对某些活动的持续兴趣，&lt;span style=&quot;background-color: transparent;&quot;&gt;比如阅读和电子竞技游戏。&lt;/span&gt;&lt;/font&gt;&lt;/div&gt;&lt;div style=&quot;&quot;&gt;&lt;span&gt;&lt;font style=&quot;color: rgb(163, 21, 21);&quot;&gt;他在电子竞技游戏中找到了一些归属感和认同感。&lt;/font&gt;&lt;/span&gt;&lt;/div&gt;&lt;div style=&quot;&quot;&gt;&lt;span&gt;&lt;font style=&quot;color: rgb(163, 21, 21);&quot;&gt;但同时，他也意识到自己在现实生活中的社交需求，&lt;/font&gt;&lt;/span&gt;&lt;/div&gt;&lt;div style=&quot;&quot;&gt;&lt;span&gt;&lt;font style=&quot;color: rgb(163, 21, 21);&quot;&gt;希望能够改善与同学的关系。&quot;&lt;/font&gt;&lt;/span&gt;&lt;/div&gt;&lt;/div&gt;" style="text;html=1;align=left;verticalAlign=middle;resizable=0;points=[];autosize=1;strokeColor=none;fillColor=none;textShadow=1;" vertex="1" parent="1">
                    <mxGeometry x="145" y="200" width="460" height="240" as="geometry"/>
                </mxCell>
            </root>
        </mxGraphModel>
    </diagram>
</mxfile>